Coordinates
version=1
nRows=16
nColumns=40
inDegrees=yes

Units are S.I. units (second, meters, Newtons, ...)
Angles are in degrees.

endheader
time	pelvis_tilt	pelvis_list	pelvis_rotation	pelvis_tx	pelvis_ty	pelvis_tz	hip_flexion_r	hip_adduction_r	hip_rotation_r	knee_angle_r	knee_angle_r_beta	ankle_angle_r	subtalar_angle_r	mtp_angle_r	hip_flexion_l	hip_adduction_l	hip_rotation_l	knee_angle_l	knee_angle_l_beta	ankle_angle_l	subtalar_angle_l	mtp_angle_l	lumbar_extension	lumbar_bending	lumbar_rotation	arm_flex_r	arm_add_r	arm_rot_r	elbow_flex_r	pro_sup_r	wrist_flex_r	wrist_dev_r	arm_flex_l	arm_add_l	arm_rot_l	elbow_flex_l	pro_sup_l	wrist_flex_l	wrist_dev_l
      2.33000000	    -14.97130776	      1.52699307	     11.07338094	     -2.41484430	      0.95584795	      0.37831468	     16.16768105	     -1.46226839	    -10.81923268	    105.10488869	    105.10488869	    -20.71608876	      0.00000000	      0.00000000	     37.63681296	      2.08087523	     -6.07592214	     40.79611730	     40.79611730	     11.89720104	      0.00000000	      0.00000000	    -27.59195139	     -5.56198876	     -3.27901106	     -9.82980065	    -11.28595477	    -17.46221642	     87.47459515	     31.23049003	      0.00000000	      0.00000000	     -1.77352754	    -24.74473576	     -2.09869936	     99.14361786	     71.56475765	      0.00000000	      0.00000000
      2.33500000	    -14.92359459	      1.50355351	     11.85097420	     -2.38728943	      0.95366585	      0.37653364	     18.58351141	     -2.23409938	    -11.30176991	    107.82467923	    107.82467923	    -19.51638624	      0.00000000	      0.00000000	     36.01413482	      2.44494875	     -5.34071850	     41.50812151	     41.50812151	     14.38894288	      0.00000000	      0.00000000	    -27.44641143	     -4.99996410	     -4.42428895	    -12.01232252	    -11.15202477	    -17.29174929	     86.32493440	     32.72494001	      0.00000000	      0.00000000	      1.46577972	    -24.40576525	     -0.72052023	    100.19993283	     66.28357734	      0.00000000	      0.00000000
      2.34000000	    -14.85445403	      1.44444237	     12.62545325	     -2.35977923	      0.95192715	      0.37465904	     21.03493134	     -3.00629290	    -11.68304488	    110.22960261	    110.22960261	    -18.36412570	      0.00000000	      0.00000000	     34.29042322	      2.70629019	     -4.57741105	     42.04282039	     42.04282039	     16.62119603	      0.00000000	      0.00000000	    -27.31739818	     -4.37070525	     -5.69285121	    -14.11546479	    -11.13037385	    -16.93392414	     85.49369413	     32.70302360	      0.00000000	      0.00000000	      4.64008205	    -24.01622354	      0.15534437	    100.99428543	     66.28255904	      0.00000000	      0.00000000
      2.34500000	    -14.75774559	      1.33394662	     13.41166272	     -2.33224713	      0.95065539	      0.37272315	     23.50032529	     -3.75854453	    -12.00055003	    112.29281475	    112.29281475	    -17.25100800	      0.00000000	      0.00000000	     32.45362879	      2.84807978	     -3.74415220	     42.36337664	     42.36337664	     18.54862214	      0.00000000	      0.00000000	    -27.19195932	     -3.66325519	     -7.02672792	    -16.13257423	    -11.18458811	    -16.62475806	     84.46657825	     37.18327052	      0.00000000	      0.00000000	      7.64160354	    -23.68286960	      1.32205560	    102.61684016	     54.01197374	      0.00000000	      0.00000000
      2.35000000	    -14.62934545	      1.15352590	     14.22846796	     -2.30463896	      0.94983104	      0.37075292	     25.95738212	     -4.47486710	    -12.30195230	    113.99729355	    113.99729355	    -16.16313195	      0.00000000	      0.00000000	     30.50658939	      2.85356075	     -2.80223771	     42.45417427	     42.45417427	     20.14421202	      0.00000000	      0.00000000	    -27.07265626	     -2.85366936	     -8.46254090	    -18.05660693	    -11.32402810	    -16.23339985	     83.61678520	     41.13837898	      0.00000000	      0.00000000	     10.56023145	    -23.36255835	      1.90789785	    103.83933837	     49.51548232	      0.00000000	      0.00000000
      2.35500000	    -14.47091897	      0.88423630	     15.09223758	     -2.27692398	      0.94939389	      0.36876409	     28.39051267	     -5.14682178	    -12.63418007	    115.33833074	    115.33833074	    -15.08584280	      0.00000000	      0.00000000	     28.47180236	      2.70482277	     -1.72599209	     42.32371576	     42.32371576	     21.39312424	      0.00000000	      0.00000000	    -26.93789144	     -1.92480632	     -9.95693714	    -19.90234954	    -11.52893771	    -15.91015418	     82.74313481	     47.06319685	      0.00000000	      0.00000000	     13.36226370	    -23.10755596	      2.25375540	    105.03917473	     46.48434912	      0.00000000	      0.00000000
      2.36000000	    -14.29207133	      0.51366028	     16.00612338	     -2.24909272	      0.94925721	      0.36676781	     30.79608397	     -5.77561814	    -13.02664035	    116.32339907	    116.32339907	    -14.00823473	      0.00000000	      0.00000000	     26.38767037	      2.38526078	     -0.51577218	     41.99877711	     41.99877711	     22.28762546	      0.00000000	      0.00000000	    -26.76190864	     -0.86986107	    -11.47545052	    -21.69552219	    -11.78934108	    -15.71011451	     81.90124386	     54.44382665	      0.00000000	      0.00000000	     16.04727998	    -22.93379342	      2.42711984	    106.25877578	     44.21258643	      0.00000000	      0.00000000
      2.36500000	    -14.11087719	      0.04305563	     16.95239701	     -2.22114640	      0.94932509	      0.36478002	     33.18428270	     -6.37109914	    -13.47755072	    116.96998437	    116.96998437	    -12.92721426	      0.00000000	      0.00000000	     24.29958018	      1.88659601	      0.79480515	     41.51334150	     41.51334150	     22.82277256	      0.00000000	      0.00000000	    -26.51487434	      0.29541434	    -12.98001080	    -23.46864821	    -12.09978810	    -15.63263904	     81.19077047	     62.15819489	      0.00000000	      0.00000000	     18.61569026	    -22.84158376	      2.46533132	    107.49760266	     42.56432287	      0.00000000	      0.00000000
      2.37000000	    -13.95208266	     -0.51016492	     17.89166830	     -2.19308303	      0.94950797	      0.36282755	     35.57625481	     -6.94649308	    -13.95100298	    117.30131975	    117.30131975	    -11.84873102	      0.00000000	      0.00000000	     22.24938917	      1.21554325	      2.14227269	     40.89800322	     40.89800322	     22.99284869	      0.00000000	      0.00000000	    -26.16796560	      1.52979503	    -14.42996420	    -25.26086747	    -12.45628539	    -15.59798838	     80.72236045	     68.51438363	      0.00000000	      0.00000000	     21.06136893	    -22.82596890	      2.40790457	    108.80739491	     40.68612016	      0.00000000	      0.00000000
      2.37500000	    -13.84401756	     -1.11794614	     18.77218006	     -2.16489206	      0.94973105	      0.36094149	     37.99877667	     -7.51120777	    -14.38836373	    117.34221688	    117.34221688	    -10.78580512	      0.00000000	      0.00000000	     20.26979426	      0.39560818	      3.44894561	     40.17622529	     40.17622529	     22.79014030	      0.00000000	      0.00000000	    -25.69875921	      2.77745540	    -15.78302829	    -27.09010359	    -12.84311709	    -15.62732567	     80.46113277	     73.76073029	      0.00000000	      0.00000000	     23.38943999	    -22.86937835	      2.24208838	    110.05454465	     40.22345518	      0.00000000	      0.00000000
      2.38000000	    -13.81445729	     -1.74954112	     19.54053910	     -2.13655407	      0.94993826	      0.35915018	     40.47802875	     -8.06551057	    -14.72512881	    117.11502786	    117.11502786	     -9.75603452	      0.00000000	      0.00000000	     18.38154975	     -0.53720076	      4.63949030	     39.36330939	     39.36330939	     22.20561171	      0.00000000	      0.00000000	    -25.09201327	      3.98099019	    -17.00271787	    -28.97711998	    -13.24736884	    -15.68686311	     80.41653279	     77.29605180	      0.00000000	      0.00000000	     25.58620136	    -22.95869341	      2.01152172	    111.34809691	     39.53512048	      0.00000000	      0.00000000
      2.38500000	    -13.88590480	     -2.37825675	     20.14997675	     -2.10804236	      0.95009378	      0.35747464	     43.03321385	     -8.59737048	    -14.90531150	    116.63712746	    116.63712746	     -8.77886681	      0.00000000	      0.00000000	     16.59264640	     -1.54171723	      5.65238207	     38.46738045	     38.46738045	     21.23047679	      0.00000000	      0.00000000	    -24.34200516	      5.09389898	    -18.05678891	    -30.92261681	    -13.64579163	    -15.83276878	     80.53362498	     79.72418010	      0.00000000	      0.00000000	     27.64872336	    -23.07223546	      1.71583307	    112.64353886	     39.04753766	      0.00000000	      0.00000000
      2.39000000	    -14.07209074	     -2.98446647	     20.56318734	     -2.07932343	      0.95018112	      0.35593158	     45.67230723	     -9.08145255	    -14.88902321	    115.91993768	    115.91993768	     -7.87360249	      0.00000000	      0.00000000	     14.89888525	     -2.57898093	      6.44113686	     37.49045425	     37.49045425	     19.85782311	      0.00000000	      0.00000000	    -23.45122282	      6.08453943	    -18.92345147	    -32.94432716	    -14.03583293	    -15.97100770	     80.85405432	     79.72558560	      0.00000000	      0.00000000	     29.56866321	    -23.19270853	      1.35116766	    113.90764656	     39.12047446	      0.00000000	      0.00000000
      2.39500000	    -14.37533872	     -3.55520433	     20.75204357	     -2.05035670	      0.95020345	      0.35453835	     48.38813699	     -9.48043061	    -14.65518285	    114.96878841	    114.96878841	     -7.05719020	      0.00000000	      0.00000000	     13.28376095	     -3.61670631	      6.97209721	     36.42897334	     36.42897334	     18.08331902	      0.00000000	      0.00000000	    -22.43780221	      6.93974451	    -19.56826222	    -34.98225096	    -14.36156923	    -16.51672504	     81.12639311	     82.69546761	      0.00000000	      0.00000000	     31.34005936	    -23.30657084	      0.96012006	    115.24501099	     38.29218258	      0.00000000	      0.00000000
      2.40000000	    -14.78609296	     -4.08402584	     20.69860601	     -2.02109946	      0.95018074	      0.35331342	     51.15713411	     -9.74950257	    -14.20436005	    113.78409037	    113.78409037	     -6.34208787	      0.00000000	      0.00000000	     11.72095198	     -4.63174557	      7.22404135	     35.27550017	     35.27550017	     15.90839800	      0.00000000	      0.00000000	    -21.32097945	      7.65873742	    -19.98730518	    -37.07991400	    -14.65092563	    -17.08950957	     81.55257801	     83.64854130	      0.00000000	      0.00000000	     32.95214245	    -23.40645689	      0.50996965	    116.56306144	     37.79613554	      0.00000000	      0.00000000
      2.40500000	    -15.28296221	     -4.56957016	     20.39576828	     -1.99151165	      0.95014924	      0.35227512	     53.93807304	     -9.84307711	    -13.55877446	    112.36266381	    112.36266381	     -5.73036366	      0.00000000	      0.00000000	     10.17555959	     -5.61001908	      7.18825908	     34.01960357	     34.01960357	     13.33914951	      0.00000000	      0.00000000	    -20.13413751	      8.25591094	    -20.16568214	    -39.20817420	    -14.88790473	    -17.80231063	     82.04414943	     84.22912545	      0.00000000	      0.00000000	     34.39990588	    -23.48957656	      0.02218705	    117.92862923	     36.73042014	      0.00000000	      0.00000000
